{"title":"Hotel.Transylvania.2.2015.BRRip.720p.x264.AAC-PRiSTiNE [P2PDL]","uid":13095123,"size":538739184,"categoryP":"video","categoryS":"hd___movies","magnet":"?xt=urn:btih:b82bb96966f7c8e277c402ae64e3638407a4c11f&amp;dn=Hotel.Transylvania.2.2015.BRRip.720p.x264.AAC-PRiSTiNE+%5BP2PDL%5D&amp;tr=udp%3A%2F%2Ftracker.leechers-paradise.org%3A6969&amp;tr=udp%3A%2F%2Fzer0day.ch%3A1337&amp;tr=udp%3A%2F%2Fopen.demonii.com%3A1337&amp;tr=udp%3A%2F%2Ftracker.coppersurfer.tk%3A6969&amp;tr=udp%3A%2F%2Fexodus.desync.com%3A6969","seeders":0,"leechers":1,"uploader":"VYTOP2PDL","files":7,"time":1451109830,"description":"Hotel.Transylvania.2.2015.BRRip.720p.x264.AAC-PRiSTiNE\r\n\r\n\r\nGenre: Animation, Comedy, Family  \nhttp://www.imdb.com/title/tt2510894/\r\n\r\n\r\nFormat                                   : MPEG-4\r\nFormat profile                           : Base Media\r\nDuration                                 : 1h 29mn\r\nOverall bit rate                         : 784 Kbps\r\n\r\nVideo\r\nFormat                                   : AVC\r\nBit rate                                 : 701 Kbps\r\nWidth                                    : 1 280 pixels\r\nHeight                                   : 688 pixels\r\nDisplay aspect ratio                     : 1.85:1\r\nFrame rate mode                          : Constant\r\nFrame rate                               : 23.976 fps\r\nBit depth                                : 8 bits\r\nStream size                              : 448 MiB (89%)\r\nWriting library                          : x264 \r\n\r\nAudio\r\nFormat                                   : AAC\r\nBit rate mode                            : Variable\r\nBit rate                                 : 79.9 Kbps\r\nChannel(s)                               : 2 channels\r\nChannel positions                        : Front: L R\r\nSampling rate                            : 48.0 KHz \r\nFrame rate                               : 23.438 fps \r\nStream size                              : 51.1 MiB (10%)\r\nLanguage                                 : English\r\n\r\nSubtitle                                 : Yes (English)\r\n\r\nScreen Shot: (Click to view)\r\n \nhttp://ititli.com/yW \nhttp://ititli.com/yg \nhttp://ititli.com/yn \nhttp://ititli.com/yw \nhttp://ititli.com/y2 \nhttp://ititli.com/y6 \nhttp://ititli.com/y8 \nhttp://ititli.com/ye \nhttp://ititli.com/yj\r\n\r\n----------------------------------------------------------------------------------------------------\r\n\r\n\r\nEncoder Notes: Looking For Early Access To Anything You Can Provide WEBDL, DVDScr, DVDR, BluRay,\r\nDirect Audio, Music Releases and Seedboxes. If You Got anything to offer please contact us.\r\n\r\nSupport us by donating BC - 1FgwdzPsd1y25Gea8wP1qni35uGCtmkRCD\r\n\r\n\r\nSend some love!\r\nFind us and join us!","torrent":{"xt":"urn:btih:b82bb96966f7c8e277c402ae64e3638407a4c11f","amp;dn":"Hotel.Transylvania.2.2015.BRRip.720p.x264.AAC-PRiSTiNE+%5BP2PDL%5D","amp;tr":["udp%3A%2F%2Ftracker.leechers-paradise.org%3A6969","udp%3A%2F%2Fzer0day.ch%3A1337","udp%3A%2F%2Fopen.demonii.com%3A1337","udp%3A%2F%2Ftracker.coppersurfer.tk%3A6969","udp%3A%2F%2Fexodus.desync.com%3A6969"],"infoHash":"b82bb96966f7c8e277c402ae64e3638407a4c11f","infoHashBuffer":{"type":"Buffer","data":[184,43,185,105,102,247,200,226,119,196,2,174,100,227,99,132,7,164,193,31]},"announce":[],"urlList":[]}}